<?xml version="1.0" standalone="no"?>
<!DOCTYPE svg PUBLIC "-//W3C//DTD SVG 20010904//EN"
 "http://www.w3.org/TR/2001/REC-SVG-20010904/DTD/svg10.dtd">
<svg version="1.0" xmlns="http://www.w3.org/2000/svg"
 width="915.000000pt" height="842.000000pt" viewBox="0 0 915.000000 842.000000"
 preserveAspectRatio="xMidYMid meet">

<g transform="translate(0.000000,842.000000) scale(0.100000,-0.100000)"
fill="#000000" stroke="none">
<path d="M3192 6418 l3 -723 348 -2 347 -1 0 364 0 364 905 0 905 0 0 360 0
360 -1255 0 -1255 0 2 -722z"/>
<path d="M4620 5693 c-1 -4 -2 -164 -3 -355 l-2 -347 60 -6 c95 -10 202 -43
289 -88 99 -51 232 -179 289 -277 122 -211 129 -485 17 -699 -73 -140 -170
-241 -303 -314 -77 -42 -189 -77 -274 -85 l-74 -7 -2 -352 -2 -353 74 0 c168
0 418 63 587 148 278 140 512 374 652 652 101 202 147 405 146 655 -1 148 -4
185 -28 290 -68 296 -182 502 -396 715 -136 137 -227 203 -385 280 -122 60
-219 93 -350 118 -111 22 -295 38 -295 25z"/>
<path d="M3381 2159 c-118 -23 -248 -116 -307 -218 -53 -94 -72 -246 -44 -351
44 -166 190 -298 365 -331 56 -10 184 -7 245 7 22 5 33 -3 74 -55 l49 -61 130
0 c102 0 127 3 120 13 -6 6 -47 56 -91 111 l-81 99 35 40 c144 169 137 443
-16 610 -108 118 -297 172 -479 136z m228 -243 c71 -37 114 -115 114 -206 1
-137 -92 -230 -228 -230 -101 0 -184 60 -216 157 -16 48 -6 140 20 191 53 105
198 146 310 88z"/>
<path d="M5943 2155 c-77 -21 -119 -41 -174 -81 -140 -102 -205 -301 -158
-483 44 -172 161 -283 343 -326 230 -55 467 47 556 237 131 281 -21 595 -318
657 -71 15 -185 13 -249 -4z m232 -234 c81 -38 127 -114 126 -212 0 -138 -90
-228 -225 -229 -72 0 -134 27 -175 76 -97 119 -50 317 89 373 42 17 141 12
185 -8z"/>
<path d="M1360 1710 l0 -440 280 0 281 0 -3 113 -3 112 -150 1 -150 2 -3 326
-2 326 -125 0 -125 0 0 -440z"/>
<path d="M2340 2138 c0 -7 -1 -204 -1 -438 l0 -425 121 -3 120 -3 0 441 0 440
-120 0 c-89 0 -120 -3 -120 -12z"/>
<path d="M4410 2138 c-4 -136 1 -603 6 -624 21 -86 97 -180 181 -222 142 -72
347 -46 466 57 20 18 51 63 69 99 l33 67 3 317 3 318 -125 0 -126 0 0 -285 c0
-310 -2 -321 -56 -364 -61 -48 -176 -14 -201 59 -8 24 -12 125 -12 313 l-1
277 -120 0 c-89 0 -120 -3 -120 -12z"/>
<path d="M6990 1711 l0 -441 119 0 c141 0 131 -12 131 158 l0 112 39 0 39 0
72 -135 71 -135 136 0 c104 0 134 3 130 13 -3 6 -41 77 -85 157 l-80 145 45
43 c63 61 86 119 86 212 0 98 -28 165 -94 224 -81 73 -110 79 -376 84 l-233 4
0 -441z m425 195 c87 -87 -19 -195 -154 -157 -23 6 -24 10 -23 86 0 44 0 83 1
88 1 4 35 7 76 7 67 0 79 -3 100 -24z"/>
<path d="M4215 941 c-106 -28 -160 -108 -135 -201 14 -53 60 -82 167 -110 148
-37 183 -59 183 -117 0 -49 -14 -68 -60 -87 -76 -30 -187 -14 -254 38 l-34 26
-16 -25 c-16 -25 -16 -25 29 -54 62 -39 131 -54 220 -49 118 8 178 60 178 155
0 83 -47 122 -188 158 -55 15 -113 34 -130 43 -54 32 -52 111 5 150 31 21 45
23 111 20 64 -3 81 -7 112 -31 36 -27 36 -27 47 -6 16 30 8 43 -44 68 -51 24
-144 35 -191 22z"/>
<path d="M5807 939 c-57 -14 -89 -33 -135 -83 -59 -64 -75 -106 -76 -201 -1
-61 4 -91 20 -126 49 -105 141 -169 244 -168 110 0 190 52 241 155 27 54 32
76 32 133 -1 189 -160 331 -326 290z m141 -68 c116 -60 160 -213 96 -338 -82
-160 -282 -160 -367 1 -30 57 -30 174 0 231 58 111 174 156 271 106z"/>
<path d="M4819 938 c-14 -49 -15 -48 96 -48 l105 0 0 -265 0 -265 30 0 30 0 0
265 0 265 105 0 105 0 0 25 0 25 -235 0 c-129 0 -235 -1 -236 -2z"/>
<path d="M6525 898 c-3 -24 -5 -153 -3 -288 l3 -245 29 0 29 0 2 90 c1 50 3
97 3 105 3 23 162 19 177 -4 107 -174 125 -196 155 -196 17 0 30 3 30 7 0 3
-29 52 -65 108 -36 56 -65 105 -65 109 0 3 6 6 14 6 7 0 25 9 40 21 98 77 84
247 -25 308 -32 18 -54 21 -177 21 l-141 0 -6 -42z m316 -47 c34 -34 39 -44
39 -85 0 -26 -7 -60 -15 -76 -27 -52 -49 -60 -171 -60 l-112 0 0 123 c1 67 3
125 5 130 2 4 52 7 110 7 l105 0 39 -39z"/>
<path d="M7340 650 l0 -290 195 0 195 0 0 29 0 29 -157 1 c-87 0 -161 1 -165
1 -5 0 -8 47 -8 105 l0 104 143 3 c134 3 142 4 142 23 0 19 -8 20 -142 23
l-143 3 0 104 0 105 165 0 165 0 0 25 0 25 -195 0 -195 0 0 -290z"/>
</g>
</svg>
